<svg version="1.1" xmlns="http://www.w3.org/2000/svg" xmlns:xlink="http://www.w3.org/1999/xlink" width="72px" height="72px" viewBox="0,0,256,256"><g fill="#ffffff" fill-rule="nonzero" stroke="none" stroke-width="1" stroke-linecap="butt" stroke-linejoin="miter" stroke-miterlimit="10" stroke-dasharray="" stroke-dashoffset="0" font-family="none" font-weight="none" font-size="none" text-anchor="none" style="mix-blend-mode: normal"><g transform="scale(3.55556,3.55556)"><path d="M36,47c1.09,0 2.14,-0.16 3.13,-0.45l7.45,7.45c-3.3,1.24 -6.88,2 -10.58,2c-15.58,0 -29,-13.41 -29,-20c0,-3.35 3.46,-8.46 8.92,-12.66l9.53,9.53c-0.29,0.99 -0.45,2.04 -0.45,3.13c0,6.08 4.92,11 11,11zM17.591,14.409l40,40c0.879,0.878 0.879,2.303 0,3.182c-0.44,0.439 -1.015,0.659 -1.591,0.659c-0.576,0 -1.151,-0.22 -1.591,-0.659l-40,-40c-0.879,-0.878 -0.879,-2.303 0,-3.182c0.879,-0.879 2.303,-0.879 3.182,0zM36,16c15.58,0 29,13.41 29,20c0,3.35 -3.46,8.46 -8.92,12.66l-9.53,-9.53c0.29,-0.99 0.45,-2.04 0.45,-3.13c0,-6.08 -4.92,-11 -11,-11c-1.09,0 -2.14,0.16 -3.13,0.45l-7.45,-7.45c3.3,-1.24 6.88,-2 10.58,-2z"></path></g></g></svg>