<svg version="1.1" xmlns="http://www.w3.org/2000/svg" xmlns:xlink="http://www.w3.org/1999/xlink" width="30px" height="30px" viewBox="0,0,256,256"><g fill="#d9d9d9" fill-rule="nonzero" stroke="none" stroke-width="1" stroke-linecap="butt" stroke-linejoin="miter" stroke-miterlimit="10" stroke-dasharray="" stroke-dashoffset="0" font-family="none" font-weight="none" font-size="none" text-anchor="none" style="mix-blend-mode: normal"><g transform="scale(8.53333,8.53333)"><path d="M15,3c-4.65384,0 -8.6923,2.66286 -10.67969,6.54492c-0.18015,0.31967 -0.17079,0.71232 0.02441,1.02303c0.1952,0.31071 0.54487,0.48958 0.91105,0.46602c0.36618,-0.02355 0.69006,-0.24574 0.84384,-0.5789c1.65661,-3.23594 5.00823,-5.45508 8.90039,-5.45508c5.53453,0 10,4.46547 10,10c0,5.53453 -4.46547,10 -10,10c-3.89216,0 -7.24378,-2.21914 -8.90039,-5.45508c-0.15378,-0.33316 -0.47766,-0.55535 -0.84384,-0.5789c-0.36618,-0.02355 -0.71585,0.15531 -0.91105,0.46602c-0.1952,0.31071 -0.20456,0.70336 -0.02441,1.02303c1.98739,3.88207 6.02585,6.54492 10.67969,6.54492c6.61547,0 12,-5.38453 12,-12c0,-6.61547 -5.38453,-12 -12,-12zM13.99023,9.99023c-0.40692,0.00011 -0.77321,0.24676 -0.92633,0.62377c-0.15312,0.37701 -0.06255,0.80921 0.22907,1.09303l2.29297,2.29297h-11.58594c-0.36064,-0.0051 -0.69608,0.18438 -0.87789,0.49587c-0.18181,0.3115 -0.18181,0.69676 0,1.00825c0.18181,0.3115 0.51725,0.50097 0.87789,0.49587h11.58594l-2.29297,2.29297c-0.26124,0.25082 -0.36648,0.62327 -0.27512,0.97371c0.09136,0.35044 0.36503,0.62411 0.71547,0.71547c0.35044,0.09136 0.72289,-0.01388 0.97371,-0.27512l3.91211,-3.91211c0.24834,-0.18944 0.39391,-0.48403 0.39353,-0.79638c-0.00038,-0.31235 -0.14668,-0.60658 -0.39548,-0.79541l-3.91016,-3.91016c-0.18827,-0.19353 -0.4468,-0.30272 -0.7168,-0.30273z"></path></g></g></svg>