<svg version="1.1" xmlns="http://www.w3.org/2000/svg" xmlns:xlink="http://www.w3.org/1999/xlink" width="48px" height="48px" viewBox="0,0,256,256"><g fill="#ffffff" fill-rule="nonzero" stroke="none" stroke-width="1" stroke-linecap="butt" stroke-linejoin="miter" stroke-miterlimit="10" stroke-dasharray="" stroke-dashoffset="0" font-family="none" font-weight="none" font-size="none" text-anchor="none" style="mix-blend-mode: normal"><g transform="scale(5.33333,5.33333)"><path d="M15.5,5c-2.3,0 -4.32047,1.19977 -5.48047,3.00977c0.16,-0.01 0.32047,-0.00977 0.48047,-0.00977h23c4.14,0 7.5,3.36 7.5,7.5v16c0,0.16 0.00023,0.32047 -0.00977,0.48047c1.81,-1.16 3.00977,-3.18047 3.00977,-5.48047v-11c0,-5.79 -4.71,-10.5 -10.5,-10.5zM10.5,10c-3.57194,0 -6.5,2.92806 -6.5,6.5v15c0,3.57194 2.92806,6.5 6.5,6.5h0.5v4.53516c0,1.95125 2.39272,3.17171 3.9707,2.02344l9.01758,-6.55859h8.51172c3.57194,0 6.5,-2.92806 6.5,-6.5v-15c0,-3.57194 -2.92806,-6.5 -6.5,-6.5z"></path></g></g></svg>