<svg version="1.1" xmlns="http://www.w3.org/2000/svg" xmlns:xlink="http://www.w3.org/1999/xlink" width="72px" height="72px" viewBox="0,0,256,256"><g fill="#ffffff" fill-rule="nonzero" stroke="none" stroke-width="1" stroke-linecap="butt" stroke-linejoin="miter" stroke-miterlimit="10" stroke-dasharray="" stroke-dashoffset="0" font-family="none" font-weight="none" font-size="none" text-anchor="none" style="mix-blend-mode: normal"><g transform="scale(3.55556,3.55556)"><path d="M36,16c-15.576,0 -29,13.414 -29,20c0,6.586 13.424,20 29,20c15.576,0 29,-13.414 29,-20c0,-6.586 -13.424,-20 -29,-20zM36,25c6.075,0 11,4.925 11,11c0,6.075 -4.925,11 -11,11c-6.075,0 -11,-4.925 -11,-11c0,-6.075 4.925,-11 11,-11zM36,32c-2.209,0 -4,1.791 -4,4c0,2.209 1.791,4 4,4c2.209,0 4,-1.791 4,-4c0,-2.209 -1.791,-4 -4,-4z"></path></g></g></svg>